<?xml version="1.0" encoding="UTF-8" standalone="no"?>
<svg
   width="1024"
   height="1024"
   version="1.1"
   id="svg12"
   sodipodi:docname="icon.svg"
   xml:space="preserve"
   inkscape:version="1.4 (86a8ad7, 2024-10-11)"
   xmlns:inkscape="http://www.inkscape.org/namespaces/inkscape"
   xmlns:sodipodi="http://sodipodi.sourceforge.net/DTD/sodipodi-0.dtd"
   xmlns="http://www.w3.org/2000/svg"
   xmlns:svg="http://www.w3.org/2000/svg"><defs
     id="defs12" /><sodipodi:namedview
     id="namedview12"
     pagecolor="#ffffff"
     bordercolor="#000000"
     borderopacity="0.25"
     inkscape:showpageshadow="2"
     inkscape:pageopacity="0.0"
     inkscape:pagecheckerboard="0"
     inkscape:deskcolor="#d1d1d1"
     inkscape:zoom="0.66998368"
     inkscape:cx="171.64597"
     inkscape:cy="355.97882"
     inkscape:window-width="3440"
     inkscape:window-height="1351"
     inkscape:window-x="-9"
     inkscape:window-y="-9"
     inkscape:window-maximized="1"
     inkscape:current-layer="svg12" /><rect
     style="fill:#40c47a;fill-opacity:1;stroke-width:2.16463"
     id="rect52"
     width="1022.722"
     height="1026.631"
     x="7.8159701e-14"
     y="-6.750156e-14"
     ry="225.93616" /><path
     d="m 871.03868,1023.8613 c -6.00429,-55.85656 -19.50514,-102.48351 -41.96875,-146.73177 -2.53824,-4.4184 -5.06704,-8.83724 -7.85882,-13.21563 -2.387,-4.36747 -5.07121,-8.68767 -7.74035,-13.00867 -29.43832,-43.17734 -68.46915,-80.49029 -111.0604,-105.69116 l -0.72367,15.02754 0.2117,8.65415 c 0.38058,-0.87604 0.82838,-1.51493 1.36269,-1.8415 0.0245,-0.0151 0.0598,0.002 0.0847,-0.013 0.51368,-0.28315 1.08165,-0.36842 1.75626,-0.0887 0.21213,0.0834 0.48978,0.39645 0.71944,0.54062 0.54641,0.35285 1.07589,0.64864 1.72666,1.36001 0.93411,1.01193 1.97975,2.39743 3.15707,4.23624 86.61976,69.15812 129.95016,155.59654 136.49051,250.67867 z"
     style="fill:#000000;stroke-width:1.02665"
     id="path50" /><path
     style="fill:#000000;stroke-width:2.16463"
     d="m 474.19969,671.69861 224.68243,-96.99773 19.43816,61.05152 -15.80002,107.12459 -0.83357,17.36351 0.53973,22.19458 -1.0778,13.7447 -1.12309,74.07892 -236.68834,-111.26212 -4.00197,-41.65196 -17.15133,-12.55265 z"
     id="path13"
     sodipodi:nodetypes="cccccccccccc" /><path
     d="m 218.845,-1.0777257 c 195.01061,2.1624773 392.188,0 589.36539,2.1624773 60.66997,2.1624772 110.50603,28.1122244 149.50814,67.0368454 36.83534,36.762153 54.16967,75.686773 62.83677,118.936353 0,222.73535 2.1668,438.98326 2.1668,657.39364 -3.2359,55.60824 -36.83537,97.31156 -71.50392,131.91123 -23.83463,21.62479 -52.00283,36.76218 -80.17103,47.57458 -6.50035,-60.54946 -21.66784,-110.28648 -47.66926,-157.86102 -30.33499,-49.73702 -73.67067,-92.9866 -121.33993,-121.09882 0,-56.22446 0,-108.12396 -2.16679,-162.18594 -99.67209,62.71189 -201.51096,121.09883 -327.18447,125.42379 -21.66784,-23.78727 -34.66855,-56.22446 -56.33639,-86.49917 4.33356,-127.58626 -19.50107,-265.98492 17.33427,-378.43383 15.16749,-19.46232 30.33499,-41.0871 52.00282,-41.0871 4.33358,36.76214 -4.33356,84.33667 23.83463,112.44891 32.50178,41.0871 82.33782,47.57454 127.8403,36.76214 32.50177,-8.64992 60.66997,-36.76214 65.00353,-67.03685 13.00071,-58.38693 -39.00212,-75.68677 -71.50389,-88.66164 0,-32.43719 28.16821,-41.0871 47.66926,-41.0871 34.66855,-2.16249 62.83676,19.4623 75.83747,47.57454 13.0007,36.76214 13.0007,84.33667 2.16678,116.77386 -32.50177,97.31156 -138.67422,121.09883 -192.84383,196.7856 -28.16819,34.59966 -39.00212,69.19933 -34.66855,112.44891 45.50248,-30.27471 108.33923,-34.59966 164.67563,-12.97487 45.50247,-28.11223 86.67138,-54.06198 130.00707,-75.68676 2.16679,28.11222 4.33357,58.38692 2.16679,86.49916 39.00212,0 82.3378,12.97487 108.33923,-15.13736 19.50105,-62.7119 32.50176,-121.09883 49.83604,-179.48576 -34.66855,-6.48744 -28.16821,58.38693 -75.83747,49.73702 -93.17173,8.64991 -194.89055,-37.81202 -279.39514,7.60005 91.00495,-97.31156 249.06017,-40.03724 324.89762,-158.97359 15.16749,-43.24959 8.66714,-95.14908 -17.33427,-125.42378 -47.66926,-49.73702 -104.00566,-64.87438 -162.50885,-71.36181 -95.33852,-4.32497 -164.67562,17.29982 -249.18022,8.64992 -49.83604,19.4623 -93.17174,58.38692 -112.6728,103.79898 -10.83392,-25.94974 2.16679,-62.71189 -6.50035,-92.9866 -86.67138,2.16249 -173.34277,8.64992 -262.180934,6.48744 -8.667141,34.59967 32.501772,15.13735 47.669261,21.6248 4.333566,211.92294 2.166783,419.52094 2.166783,627.11893 8.66714,49.73702 33.88244,91.7998 70.71779,117.74955 -4.33358,32.43719 -14.38139,63.89869 -14.38139,94.1734 C 112.67255,1008.8 80.170783,985.01273 54.16937,954.73802 23.834392,920.13836 6.5001092,883.37621 2.1665438,842.28911 -2.3896685e-4,623.87873 -2.3896685e-4,414.11825 -2.3896685e-4,200.03282 10.833675,96.233832 93.235869,-4.6767288 202.95781,-1.3359908"
     fill="#3fbe77"
     id="path1"
     sodipodi:nodetypes="ccscccccccccccccccccscccccccccccccccccccccccc"
     style="stroke-width:2.16463" /><path
     d="m 878.42471,828.0158 c 22.06334,-67.5898 -0.18657,-0.22892 -0.28394,-0.33731 13.74326,-43.51418 26.38424,-84.51347 38.35171,-126.24881 2.32249,-9.37061 4.50815,-18.87289 6.47677,-28.58523 -89.69415,23.49384 -179.89272,43.73534 -273.34451,34.6331 l -7.2116,3.90905 10.53915,14.34223 c 0.94775,0.099 1.90724,0.16218 2.85394,0.26451 54.21639,56.86267 105.21026,112.42017 155.23722,166.64002 10.0539,10.40729 20.1268,20.81343 30.40052,31.20076 16.85393,-30.1306 25.10912,-63.69719 36.98074,-95.81832 z"
     id="path25"
     sodipodi:nodetypes="ccccccccccc"
     style="stroke-width:2.16463" /><path
     d="m 149.51637,1019.359 10.84236,2.5468 c -0.0711,-0.063 -0.14062,-0.096 -0.21169,-0.1604 6.50047,-58.38702 28.36297,-101.60704 58.69796,-144.85663 28.1682,-49.73702 71.50389,-92.98659 117.00636,-118.93634 v 0 c -45.50247,25.94975 -88.83816,69.19932 -117.00636,118.93634 -30.33499,43.24959 -52.19749,86.46961 -58.69785,144.85653 0.0711,0.064 0.14063,0.097 0.21169,0.1605 l 0.5417,0.1267 683.43009,2.0146 c 0.93532,-0.045 1.94727,-0.064 2.88189,-0.1097 -6.50035,-95.14912 -49.83604,-181.64829 -136.50743,-250.84762 -4.63763,-7.24331 -7.27456,-7.72103 -8.80678,-4.19402 l 0.33008,13.54084 -1.07917,13.74354 -1.1257,74.07759 -236.68735,-111.26208 -3.98231,-41.47568 c -0.61523,-0.33927 -1.20001,-0.6615 -1.81553,-1.00099 -32.50177,6.48743 -63.18379,13.32122 -95.68556,24.13361 v 0 c 32.50177,-10.81239 63.18379,-17.64618 95.68556,-24.13361 0.61552,0.33949 1.2003,0.66172 1.81553,1.00099 l -0.0173,-0.17732 -17.1523,-12.5525 5.70051,-5.89192 c -0.34257,0.0723 -0.68124,0.15246 -1.02415,0.22384 -23.85561,5.55196 -48.49385,9.48829 -74.17389,11.25582 -1.96218,-2.82861 -3.66811,-5.8733 -5.51853,-8.78508 -18.45999,-22.99515 -31.07783,-52.29544 -50.81786,-79.87657 0.0152,-0.47436 -0.002,-0.96136 0.013,-1.43601 -0.75007,-0.96321 -1.4076,-1.92562 -2.17978,-2.88894 1.70747,-24.28315 2,-49.24685 1.94672,-74.42392 -2.74244,-103.98439 -11.80547,-210.05704 17.55431,-299.68496 15.16749,-19.46232 30.33499,-41.0871 52.00282,-41.0871 0.16901,1.43448 5.6876,4.11255 8.66714,4.32493 -3.9066,12.99611 -6.1733,26.98517 -6.57653,41.11245 1.04694,25.0023 4.39814,49.70008 21.74402,67.01151 32.50178,41.0871 82.33782,47.57454 127.8403,36.76214 32.50177,-8.64992 60.66997,-36.76214 65.00353,-67.03685 13.00071,-58.38694 -39.00212,-75.68677 -71.50389,-88.66164 0,-2.24922 0.43546,-4.11981 0.69405,-6.14533 -0.22236,-0.10431 -0.4726,-0.2381 -0.69405,-0.34209 0.6231,-7.46237 3.55585,-13.16176 7.70648,-17.71375 9.70678,-12.68675 26.7338,-16.88591 39.96278,-16.88591 34.66855,-2.16249 62.83676,19.4623 75.83747,47.57454 13.0007,36.76214 13.0007,84.33667 2.16678,116.77386 -32.50177,97.31156 -138.67422,121.09883 -192.84383,196.7856 -23.01452,28.26926 -34.27551,56.62064 -35.32875,89.60772 0.0321,7.04846 0.56833,14.54955 1.46427,22.38503 30.50894,-20.01719 68.66313,-28.23395 107.41243,-25.11768 19.16308,0.0539 38.86375,2.63889 58.62591,8.27401 12.61236,-6.29366 25.02491,-13.0056 37.37704,-19.87199 30.42219,-18.62171 60.14582,-36.36123 90.46325,-51.48981 1.68478,21.85874 3.30214,44.99768 2.94971,67.43808 0.56118,6.30424 1.54838,12.72594 2.63229,19.1751 38.10159,0.6838 79.67326,12.04925 104.92402,-15.25138 12.41471,-39.92347 22.20949,-78.01954 32.1505,-115.55326 4.31927,-21.25101 8.43484,-42.64151 12.23471,-64.30419 -24.46311,0.88536 -25.75005,42.71612 -53.66599,49.80038 -5.6605,2.40448 -12.43386,3.54621 -21.05421,2.47081 -88.83817,4.32495 -190.67705,-32.43719 -277.34843,6.48743 1.84786,-1.58804 3.79998,-2.92804 5.68359,-4.43055 89.45102,-90.40156 239.65964,-40.56127 316.32938,-148.10447 3.35814,-6.10414 6.26976,-12.44691 8.44285,-19.07798 0.13434,-0.52503 0.31174,-1.03606 0.44012,-1.56271 0.41565,-1.33589 0.7029,-2.71367 1.06646,-4.06733 8.33537,-39.14573 0.51406,-81.85935 -22.1122,-108.20419 -47.66926,-49.73702 -104.00566,-64.87438 -162.50885,-71.36181 -41.217,-1.8698 -77.48054,1.12632 -112.30461,4.41366 -11.65895,2.28524 -23.57505,3.02688 -35.61229,3.23948 -19.59233,-12.96787 -36.44183,-12.2762 -74.22258,-7.17485 -45.67762,12.53103 -41.35452,16.4108 -57.37573,25.47145 -7.18555,2.95289 -14.03497,6.83703 -20.67755,11.15874 -27.19991,20.29019 -49.26597,46.47786 -61.66026,75.34042 -0.18439,-0.44183 -0.24386,-0.94151 -0.41474,-1.38956 -0.56027,1.19408 -1.21641,2.34927 -1.75204,3.55204 -0.59167,-4.42864 -0.86905,-8.90318 -0.99451,-13.40146 -3.78954,-20.96632 1.80916,-46.44 -0.98606,-69.66814 -0.10812,-0.58184 -0.1688,-1.16766 -0.28779,-1.74858 -0.14842,-1.05896 -0.43868,-2.07744 -0.62634,-3.12545 -0.58063,-2.40649 -1.44089,-4.78879 -2.24294,-7.17588 -68.3299,1.72583 -136.71121,5.93236 -206.111154,6.6268 -18.353099,0.76937 -36.813631,1.47049 -55.642354,1.93019 -6.334742,31.50577 33.217085,13.1831 48.045905,19.52568 4.333566,211.92294 2.166783,419.52094 2.166783,627.11893 5.308037,30.46058 16.88129,57.98974 33.47091,80.75507 11.04726,13.81972 24.50157,26.63716 40.19976,38.18128 -2.18786,5.67713 -4.18817,11.62745 -6.12794,17.60392 -4.78418,25.72404 -11.15318,50.82444 -11.19785,75.12928 z"
     style="fill:#000000;stroke-width:2.16463"
     id="path37"
     sodipodi:nodetypes="ccccssccccccccccccccsscccccccccccccccccccccccccsccccccccccccccccccccccccccccccccccccccccccc" /><g
     id="g52"
     transform="matrix(2.4073254,0,0,2.4580917,-50.804794,411.70997)"><path
       d="m 293.91,212.775 c -6.025,0 -10.926,-4.905 -10.926,-10.93 0,-6.025 4.901,-10.926 10.926,-10.926 6.026,0 10.927,4.9 10.927,10.926 0,6.025 -4.901,10.93 -10.927,10.93 m -120.774,0 c -6.025,0 -10.926,-4.905 -10.926,-10.93 0,-6.025 4.9,-10.926 10.926,-10.926 6.025,0 10.926,4.9 10.926,10.926 0,6.025 -4.9,10.93 -10.926,10.93 m 124.693,-65.82 c 0,-0.001 -8.142,-4.065 -8.142,-4.065 -16.91,-7.716 -35.9,-12.015 -56.164,-12.015 -20.264,0 -39.254,4.299 -56.163,12.015 l -22.112,-38.3 c -1.25665,-2.17018 -4.03258,-2.91404 -6.206,-1.663 -2.17208,1.2552 -2.91641,4.03289 -1.663,6.206 l 21.838,37.822 c -37.499,20.395 -63.146,58.358 -66.898,103.209 h 262.408 c -3.755,-44.85 -29.402,-82.814 -66.898,-103.21"
       fill="#3ddb85"
       id="path1-0"
       sodipodi:nodetypes="csssccssscccscccccccc" /><path
       fill="none"
       d="M 0,0 H 467.046 V 250.164 H 0 Z"
       id="path2" /></g><ellipse
     style="fill:#ffffff;fill-opacity:1;stroke-width:2.11002"
     id="path52"
     cx="365.9899"
     cy="907.86353"
     rx="26.302441"
     ry="26.862043" /><ellipse
     style="fill:#ffffff;fill-opacity:1;stroke-width:2.11002"
     id="ellipse53"
     cx="656.73218"
     cy="907.86835"
     rx="26.302441"
     ry="26.862043" /></svg>
